<svg id="Capa_1" data-name="Capa 1" xmlns="http://www.w3.org/2000/svg" viewBox="0 0 1200 398"><defs><style>.cls-1{fill:#fff;}</style></defs><path class="cls-1" d="M585.94,363.61C459.36,360.93,320.08,351,186.88,301.13c-27.64-10.34-53.93-23.55-77.1-42.28C66.32,223.72,64.88,180.43,107,144c37.92-32.83,84.32-48.95,131.41-62.47C293,65.84,349.06,57.7,405.49,50A1427.27,1427.27,0,0,1,668.12,38.5C723,41.2,777.91,46.9,832.71,54.72c70.8,10.1,139.37,25.3,204.68,53.88,26.67,11.66,51.1,26.85,71.29,49.5,32,35.88,14.29,77.48-16.32,100.73-60.24,45.74-131.58,63.17-203.51,78.08C793.57,356.65,696.88,363,585.94,363.61ZM973.09,133c6.77-20.35-1.93-30-22.49-30.64-23.09-.75-47.06,2.59-69.16-2.41C726.33,64.78,570.22,60,413.1,81.43c-72.78,9.92-145.31,20.53-207,66.69-46.53,34.81-45.66,77.63,4.94,107-2.53,9-8.18,18.47,1.51,23.72,185.39,38,370.89,73.52,561.23,42.44,36.32-6.45,73-13.76,109.24-22.67,43.62-10.72,85.19-26.44,121.44-54.21,33.39-25.58,35.46-56.79,4.08-84.95C998,150,985.76,142.34,973.09,133Z"/><path class="cls-1" d="M761.89,305.75c-6.49,3.05-13.12,2.76-21.9-1.94,9.68-2.67,14.19-11.69,24.72-9.68C758.05,296.89,765.85,301,761.89,305.75Z"/><path class="cls-1" d="M587.83,300.73c-.87,2-1.74,4-2.35,5.39-6.82,2.08-2.94-4.94-6.56-5.45-1.73,2.67-1.69,7.92-9.11,6,1.68-5.05,3.35-10.11,4.82-14.55,10.37-5.38,10.39,3.43,13.2,8.25Z"/><path class="cls-1" d="M435.22,290.65c-3.36,8.43-5,12.61-7.8,19.57-4.23-10-12.47-8.39-19.31-11.15,5.12-8.29,8.2-7.09,10.21-.14Z"/><path class="cls-1" d="M713.32,291.3c-10.77-.26-7.7,14.94-16.56,16.53-5.54-5.2,8.86-13.32-3.86-16.53Z"/><path class="cls-1" d="M529,292.58l-1.07,10.34,17.36,3.3H519C520.38,301.76,519,295.46,529,292.58Z"/><path class="cls-1" d="M636.19,299.52c6.12-6.4,13.14-3.76,20.85-2.83C650.72,305.85,642.89,298.64,636.19,299.52Z"/><path class="cls-1" d="M475.05,296l10.26.77-.05,3.85-13.05,1.4Q473.62,299,475.05,296Z"/><path class="cls-1" d="M475.05,296q-1.43,3-2.84,6c-4.92,3.85-5-1-8.3-5.46Z"/><path class="cls-1" d="M587.83,300.73v-.33c4.77-2.2,9.56-4.63,15.87,4.27Z"/><path class="cls-1" d="M364.57,221.45c-12.67-4.07-27.17-5.57-30.43,9.51-7.07,32.73-27,39.93-56.53,36.16-13.21-1.69-26.81-.29-38.62-.29-7-8.92-2.79-15.31-.55-21.36,13.17-35.59,27.17-70.88,39.73-106.69,4.23-12.09,10.95-18.68,23.29-18.4,22.52.49,45.58-4.22,67.28,3.61,2.39,19-11,31.76-11,49.47,12.75-.07,25.94,6.63,32.94-11.49,15.9-41.13,56-56,98.84-37.15,3.63,6.48,1.57,12.81-.86,19.28-12.37,33-25,66-36.76,99.21-5.94,16.84-16,25.73-34.42,23.56-2.23-.27-4.53,0-6.8-.05-15.81-.42-34.38,4.22-46.79-2.5C344.84,254,369.07,237.56,364.57,221.45Z"/><path class="cls-1" d="M794.81,235.42c16.45,5.47,29.19,8.91,36.66-8.33,3.3-7.63,9.25-11.61,16.81-11.77,22.88-.48,45.78-.18,68.09-.18,4.84,30.92-13.21,53.3-39.85,53.3-51.23,0-102.46.08-153.69-.09-6.6,0-13.2-1.32-20.86-2.14,0-5.25-1.07-9.48.16-12.87q21.3-58.58,43.32-116.88c3.53-9.31,11.72-14.38,21.3-14.43,61.15-.34,122.3-.17,184.55-.17,4.79,17.57-2.47,35.85-13.29,42.83-24.57,15.85-53.82,3.11-82.84,7.24.94-8.29,1.47-13,2.08-18.36-7.68-6.8-19.31-7.29-24.61-1.7C810.88,174.84,809.3,207.07,794.81,235.42Z"/><path class="cls-1" d="M467.67,257.92c11.22-16.72,6.88-42.19,28.67-52.58,15-7.15,70.43-1.45,78.85,5.85q-3.08,11.28-6.34,23.19c9.78,6.23,18.7,4.7,29.63.19,11.28-30.2,23.58-61.26,34.38-92.84,5.37-15.71,14.37-23.28,30.95-21.82,21,1.84,42.49-4,64.71,4.9-1.12,5.18-1.65,10.45-3.41,15.26-12.62,34.38-25.71,68.6-38.19,103-5.92,16.34-15.38,24.48-34.2,24.1-53.06-1.06-106.15-.32-159.23-.43C485,266.75,476,267.72,467.67,257.92Z"/></svg>